:SAMPLES-PER-SECOND 30
:FULLY-SPECIFIED
:DEGREES
1119
root  28.3169 38.6685 29.5503 174.832 4.80703 179.782
RightUpLeg  -13.2762 -12.1432 -19.5568
RightLeg  33.2599 6.96966 4.65413
RightFoot  -0.451391 -0.806254 8.36728
RightToes  -1.33073e-015 0 -3.6325e-017
Spine  14.7133 0.23686 -4.60427
Spine1  10.5708 -1.30872 2.4661
HEad  7.7285 -13.393 2.34714
LeftShoulder1  0.818275 0.959396 -25.9737
LeftArm  -3.97298 5.01392 -40.5516
LeftForeArm  60.4152 -78.8624 -80.1438
LeftHand  -0.345884 1.07467 9.26365
RightShoulder  -0.0514924 -3.63794 25.5736
RightArm  -13.9074 5.97692 33.2711
RightForeArm  14.4687 73.6369 43.3506
RightHand  0.0245618 3.36927 0.0825364
LeftUpLeg  -5.9957 0.847704 7.4582
LeftLeg  21.9838 -9.70372 -3.94586
LeftFoot  -10.2101 0.0887559 -2.81287
LeftToes  -1.93726e-010 2.42366e-011 2.16268e-013
1120
root  28.9619 38.5819 29.5305 175.106 4.42344 179.564
RightUpLeg  -11.0606 -9.61625 -21.8054
RightLeg  26.6195 4.81575 2.37773
RightFoot  -2.74998 -0.509018 6.54373
RightToes  -1.33073e-015 0 -3.6325e-017
Spine  14.4945 0.254411 -4.21213
Spine1  10.4251 -1.15387 2.46875
HEad  6.68474 -13.8967 2.43509
LeftShoulder1  0.819882 0.984731 -26.3783
LeftArm  -2.97913 4.56091 -41.0579
LeftForeArm  60.1171 -78.8569 -79.2637
LeftHand  -0.365138 0.749407 9.12901
RightShoulder  -0.000382614 -3.47862 24.9528
RightArm  -14.9296 4.69549 32.5484
RightForeArm  16.4779 74.2205 45.4893
RightHand  0.0257747 3.49806 0.089937
LeftUpLeg  -6.25594 0.326693 8.24565
LeftLeg  21.8881 -9.74023 -3.94864
LeftFoot  -10.3597 0.094737 -3.81803
LeftToes  -1.93726e-010 2.42366e-011 2.16268e-013
1121
root  29.6398 38.4313 29.5328 175.325 4.60203 179.059
RightUpLeg  -9.35969 -7.15985 -23.8536
RightLeg  20.5432 3.37773 1.22271
RightFoot  -4.69413 -0.360563 5.67877
RightToes  -1.33073e-015 0 -3.6325e-017
Spine  14.3353 0.285693 -3.38753
Spine1  10.6534 -0.721174 1.65639
HEad  6.63336 -15.0513 2.63174
LeftShoulder1  0.78013 1.11213 -26.4499
LeftArm  -2.47571 4.06392 -41.5761
LeftForeArm  60.8425 -78.8864 -79.3876
LeftHand  -0.33887 0.738444 8.45423
RightShoulder  -0.0430324 -3.6138 25.0794
RightArm  -15.2849 4.83347 31.338
RightForeArm  17.3949 74.4198 46.2373
RightHand  0.0397003 2.90073 0.333313
LeftUpLeg  -6.56356 -0.531073 8.7578
LeftLeg  22.1249 -9.00326 -3.6731
LeftFoot  -10.67 0.092076 -4.83331
LeftToes  -1.93726e-010 2.42366e-011 2.16268e-013
1122
root  30.4049 38.2358 29.5876 175.664 5.11081 178.586
RightUpLeg  -8.54805 -5.69779 -24.9414
RightLeg  15.8923 1.28317 -0.310079
RightFoot  -6.29279 -0.255166 4.78813
RightToes  -1.33073e-015 0 -3.6325e-017
Spine  14.6573 0.445825 -2.69865
Spine1  10.3872 -0.285473 1.35144
HEad  5.99034 -15.9736 2.97925
LeftShoulder1  0.812504 1.00104 -26.2877
LeftArm  -2.39784 4.39859 -42.1275
LeftForeArm  63.3559 -78.9667 -81.8912
LeftHand  -0.35012 0.816988 8.87436
RightShoulder  -0.0820907 -3.73628 25.2748
RightArm  -15.1545 5.68332 30.177
RightForeArm  16.0159 74.2177 45.5936
RightHand  0.0300219 3.12123 0.179359
LeftUpLeg  -7.08366 -0.946477 9.57921
LeftLeg  22.5859 -8.51412 -3.54216
LeftFoot  -11.0685 0.080482 -5.96716
LeftToes  -1.93726e-010 2.42366e-011 2.16268e-013
1123
root  31.2193 38.0164 29.6676 175.758 5.9129 178.097
RightUpLeg  -8.3482 -9.39352 -24.7972
RightLeg  13.1302 0.654138 -2.20466
RightFoot  -7.0315 -0.132763 2.3009
RightToes  -1.33073e-015 0 -3.6325e-017
Spine  15.3508 0.438498 -1.65299
Spine1  10.1801 -0.00833518 1.13043
HEad  4.32876 -14.9606 3.17764
LeftShoulder1  0.782651 1.12194 -26.7069
LeftArm  -2.78862 4.5757 -42.0267
LeftForeArm  64.3297 -78.9944 -82.6831
LeftHand  -0.372288 0.501496 8.8601
RightShoulder  0.00600749 -3.45819 24.5556
RightArm  -14.8866 6.35586 30.2506
RightForeArm  15.0419 74.0825 45.2012
RightHand  -0.00648737 3.26252 -0.328723
LeftUpLeg  -7.2243 -0.203207 10.5957
LeftLeg  22.9608 -8.68123 -3.68703
LeftFoot  -11.366 0.0666638 -7.02026
LeftToes  -1.93726e-010 2.42366e-011 2.16268e-013
1124
root  32.1648 37.7652 29.7771 176.37 6.74453 177.416
RightUpLeg  -9.34204 -12.8843 -24.3794
RightLeg  12.5415 -1.54041 -3.02667
RightFoot  -7.01988 -0.121619 1.88896
RightToes  -1.33073e-015 0 -3.6325e-017
Spine  15.5207 0.430552 -1.4915
Spine1  10.3091 -0.0689048 1.6895
HEad  2.97521 -14.6707 2.87918
LeftShoulder1  0.701251 1.39499 -27.0945
LeftArm  -3.58982 4.81403 -41.7399
LeftForeArm  64.7635 -78.9973 -83.4922
LeftHand  -0.359975 0.747569 8.98125
RightShoulder  -0.00578798 -3.49611 24.33
RightArm  -14.2908 8.45063 30.6998
RightForeArm  13.3781 73.5914 43.3919
RightHand  0.0017357 3.64979 -0.233274
LeftUpLeg  -7.76776 0.626512 11.6296
LeftLeg  22.9807 -8.85666 -3.77291
LeftFoot  -11.4344 0.0614556 -8.32573
LeftToes  -1.93726e-010 2.42366e-011 2.16268e-013
1125
root  33.2423 37.4778 29.9128 176.956 7.5754 176.604
RightUpLeg  -10.9684 -13.7546 -24.4417
RightLeg  14.0838 -1.76113 -2.31858
RightFoot  -4.91284 -0.469337 7.4355
RightToes  -1.33073e-015 0 -3.6325e-017
Spine  15.8217 0.1847 -0.210236
Spine1  10.3742 0.214828 0.381597
HEad  0.748359 -13.8945 2.85355
LeftShoulder1  0.740919 1.27214 -27.0473
LeftArm  -4.51213 5.22736 -41.4028
LeftForeArm  63.5262 -78.9558 -82.8484
LeftHand  -0.411146 0.737482 10.2717
RightShoulder  -0.0374753 -3.59945 24.2964
RightArm  -13.9009 10.6873 31.7775
RightForeArm  12.1663 73.1079 41.7278
RightHand  -0.0368246 3.65387 -0.722399
LeftUpLeg  -8.20813 0.980246 12.6924
LeftLeg  22.7924 -8.69909 -3.66724
LeftFoot  -11.3288 0.0691307 -9.91457
LeftToes  -1.93726e-010 2.42366e-011 2.16268e-013
1126
root  34.3697 37.1858 30.1048 177.384 8.54875 175.926
RightUpLeg  -13.9671 -15.3451 -24.3798
RightLeg  17.7599 -0.330943 -0.489018
RightFoot  -2.19045 -1.00607 12.4952
RightToes  -1.33073e-015 0 -3.6325e-017
Spine  16.9469 -0.224236 1.10335
Spine1  9.88683 0.307591 -1.02824
HEad  -1.57378 -12.7109 2.53134
LeftShoulder1  0.765581 1.20562 -27.1636
LeftArm  -6.36211 5.95573 -41.2956
LeftForeArm  60.0382 -78.8548 -79.098
LeftHand  -0.373782 0.790403 9.41533
RightShoulder  -0.0985283 -3.79913 24.2515
RightArm  -12.9539 14.0304 33.1592
RightForeArm  9.61703 72.0992 38.6926
RightHand  -0.0833072 3.91874 -1.30668
LeftUpLeg  -8.45139 1.0418 13.9049
LeftLeg  22.4697 -7.91312 -3.2549
LeftFoot  -10.7682 0.122637 -11.5673
LeftToes  -1.93726e-010 2.42366e-011 2.16268e-013
1127
root  35.5368 36.981 30.2662 178.331 9.67447 176.145
RightUpLeg  -17.6941 -17.6292 -21.9696
RightLeg  21.9703 2.53275 0.920697
RightFoot  -1.50326 -1.14768 13.1902
RightToes  -1.33073e-015 0 -3.6325e-017
Spine  17.5741 -0.74428 3.07255
Spine1  9.50074 0.257152 -1.91384
HEad  -3.83711 -10.7924 1.80878
LeftShoulder1  0.773181 1.2112 -27.588
LeftArm  -8.44816 7.10919 -41.0176
LeftForeArm  57.6538 -78.7564 -76.5272
LeftHand  -0.324842 0.693903 8.03244
RightShoulder  -0.0259992 -3.56489 23.4762
RightArm  -11.7763 17.4412 34.5735
RightForeArm  7.40029 70.9236 35.6514
RightHand  -0.056661 3.82056 -0.978908
LeftUpLeg  -8.60153 1.57369 16.0938
LeftLeg  21.3668 -7.15502 -2.75099
LeftFoot  -9.62762 0.256786 -13.2114
LeftToes  -1.93726e-010 2.42366e-011 2.16268e-013
1128
root  36.7504 36.9449 30.3982 178.896 10.1529 176.248
RightUpLeg  -19.9697 -19.2151 -19.5631
RightLeg  24.6562 4.13622 1.85575
RightFoot  -0.0611699 -1.19535 12.007
RightToes  -1.33073e-015 0 -3.6325e-017
Spine  18.273 -1.07967 3.74972
Spine1  9.05729 -0.205002 -0.994637
HEad  -5.65682 -9.72485 1.78259
LeftShoulder1  0.782866 1.18327 -27.6089
LeftArm  -10.297 8.43754 -40.7878
LeftForeArm  54.2983 -78.5828 -73.4877
LeftHand  -0.349096 0.462143 8.24172
RightShoulder  0.00209989 -3.46932 23.4624
RightArm  -9.94105 20.8644 36.041
RightForeArm  5.34814 69.5594 32.6607
RightHand  -0.0342452 3.43094 -0.685047
LeftUpLeg  -7.94679 1.92813 17.9614
LeftLeg  19.0335 -6.04332 -1.99885
LeftFoot  -6.80948 0.591344 -13.6805
LeftToes  -1.93726e-010 2.42366e-011 2.16268e-013
1129
root  37.947 37.0155 30.5407 179.117 9.41236 175.878
RightUpLeg  -21.3482 -21.0943 -17.9101
RightLeg  27.5454 4.9282 2.54672
RightFoot  -1.49315 -0.824034 9.43921
RightToes  -1.33073e-015 0 -3.6325e-017
Spine  18.7838 -1.65113 4.3009
Spine1  9.10013 -0.782993 -0.678542
HEad  -6.43824 -9.94207 1.96896
LeftShoulder1  0.838512 0.989107 -27.1946
LeftArm  -11.6188 8.4522 -40.7992
LeftForeArm  49.0123 -78.2226 -68.3018
LeftHand  -0.376616 0.392362 8.78299
RightShoulder  -0.0596211 -3.67409 23.9671
RightArm  -8.57526 23.3124 37.5814
RightForeArm  4.41047 68.2518 30.1189
RightHand  0.0433537 3.22366 0.343246
LeftUpLeg  -7.90248 0.464363 18.7584
LeftLeg  17.2212 -2.93893 -0.69095
LeftFoot  -2.11356 0.935391 -11.8784
LeftToes  -1.93726e-010 2.42366e-011 2.16268e-013
1130
root  39.1103 37.2422 30.6394 179.302 8.51811 175.463
RightUpLeg  -21.5267 -21.2764 -16.5411
RightLeg  28.4632 4.08364 2.16576
RightFoot  -2.38032 -0.639894 7.94893
RightToes  -1.33073e-015 0 -3.6325e-017
Spine  19.2489 -2.08176 4.74705
Spine1  8.86883 -1.18231 -0.705986
HEad  -7.29977 -10.2306 1.99954
LeftShoulder1  0.872049 0.891295 -27.2506
LeftArm  -12.4037 8.10714 -40.5769
LeftForeArm  42.9319 -77.6432 -62.2578
LeftHand  -0.367207 0.399415 8.57481
RightShoulder  -0.0117005 -3.51523 23.7899
RightArm  -7.78568 24.31 38.8943
RightForeArm  3.25027 67.2067 28.421
RightHand  0.029578 3.4604 0.140365
LeftUpLeg  -8.50386 -0.645431 18.6504
LeftLeg  16.645 1.66803 0.944349
LeftFoot  3.42574 0.798853 -6.19603
LeftToes  -1.93726e-010 2.42366e-011 2.16268e-013
1131
root  40.1188 37.5317 30.6374 179.446 7.25841 174.937
RightUpLeg  -20.8742 -21.9649 -15.6354
RightLeg  28.2814 3.36056 1.72615
RightFoot  -2.94521 -0.502705 6.57119
RightToes  -1.33073e-015 0 -3.6325e-017
Spine  19.2095 -2.59534 5.50997
Spine1  8.63165 -1.56008 -0.972064
HEad  -7.74495 -11.1189 2.25232
LeftShoulder1  0.937491 0.668501 -26.9173
LeftArm  -12.9326 8.00298 -40.7669
LeftForeArm  36.872 -76.8491 -56.0014
LeftHand  -0.333289 0.84992 8.50285
RightShoulder  -0.05042 -3.64082 24.4193
RightArm  -6.67412 25.0361 39.2476
RightForeArm  2.37613 66.3937 27.2253
RightHand  0.0216935 3.29437 0.0510625
LeftUpLeg  -9.37494 -1.47308 17.4317
LeftLeg  17.4014 2.65468 1.24003
LeftFoot  4.62328 0.579938 -4.31927
LeftToes  -1.93726e-010 2.42366e-011 2.16268e-013
